<svg id="icn_star_rate_large" xmlns="http://www.w3.org/2000/svg" width="34.551" height="34.551" viewBox="0 0 34.551 34.551">
  <g id="star">
    <path id="Vector" d="M26.056,9.4c2.937.489,3.628,2.62,1.512,4.722L24,17.7a3.126,3.126,0,0,0-.749,2.606l1.022,4.42c.806,3.5-1.051,4.852-4.146,3.023L15.82,25.2a3.112,3.112,0,0,0-2.85,0l-4.3,2.548c-3.081,1.828-4.952.461-4.146-3.023L5.541,20.3A3.126,3.126,0,0,0,4.792,17.7l-3.57-3.57C-.88,12.024-.2,9.894,2.734,9.4l4.592-.763A3.135,3.135,0,0,0,9.356,7.13L11.89,2.062c1.368-2.75,3.613-2.75,5,0L19.419,7.13a2.588,2.588,0,0,0,.705.849" transform="translate(2.881 2.991)" fill="none" stroke="#000" stroke-linecap="round" stroke-linejoin="round" stroke-width="1.5"/>
    <path id="Vector-2" data-name="Vector" d="M0,0H34.551V34.551H0Z" fill="none" opacity="0"/>
  </g>
</svg>
